<svg width="48" height="48" viewBox="0 0 64 64" fill="none" xmlns="http://www.w3.org/2000/svg"><path d="M16 50.667v2.666c0 .756-.256 1.39-.768 1.902s-1.145.767-1.899.765h-2.666c-.756 0-1.39-.256-1.902-.768S7.998 54.087 8 53.333V32l5.6-16c.267-.8.744-1.444 1.432-1.933a3.881 3.881 0 012.301-.734h29.334a3.89 3.89 0 012.301.734A3.763 3.763 0 0150.4 16L56 32v21.333c0 .756-.255 1.39-.765 1.902s-1.144.767-1.902.765h-2.666c-.756 0-1.39-.256-1.902-.768s-.767-1.145-.765-1.899v-2.666H16zm-.533-24h33.066l-2.8-8H18.267l-2.8 8zm4.533 16c1.111 0 2.056-.39 2.835-1.168.778-.779 1.167-1.723 1.165-2.832 0-1.111-.39-2.056-1.168-2.835-.779-.779-1.723-1.167-2.832-1.165-1.111 0-2.056.389-2.835 1.168-.778.778-1.167 1.722-1.165 2.832 0 1.11.39 2.056 1.168 2.834.779.779 1.723 1.167 2.832 1.166zm24 0c1.111 0 2.056-.39 2.835-1.168.778-.779 1.167-1.723 1.165-2.832 0-1.111-.39-2.056-1.168-2.835-.779-.779-1.723-1.167-2.832-1.165-1.111 0-2.056.389-2.835 1.168-.778.778-1.167 1.722-1.165 2.832 0 1.11.39 2.056 1.168 2.834.779.779 1.723 1.167 2.832 1.166z" fill="#5E8CA5"/></svg>