<svg width="48" height="48" viewBox="0 0 64 64" fill="none" xmlns="http://www.w3.org/2000/svg"><path d="M38.8 44.133l3.733-3.8-7.866-7.866V21.333h-5.334v13.334l9.467 9.466zM29.333 16h5.334v-5.333h-5.334V16zM48 34.667h5.333v-5.334H48v5.334zM29.333 53.333h5.334V48h-5.334v5.333zM10.667 34.667H16v-5.334h-5.333v5.334zm21.333 24c-3.689 0-7.156-.7-10.4-2.102-3.245-1.4-6.067-3.3-8.467-5.698-2.4-2.4-4.3-5.223-5.698-8.467-1.4-3.244-2.1-6.711-2.102-10.4 0-3.689.7-7.156 2.102-10.4 1.4-3.245 3.3-6.067 5.698-8.467 2.4-2.4 5.223-4.3 8.467-5.698 3.244-1.4 6.711-2.1 10.4-2.102 3.689 0 7.156.7 10.4 2.102 3.244 1.4 6.067 3.3 8.467 5.698 2.4 2.4 4.3 5.223 5.7 8.467 1.402 3.244 2.101 6.711 2.1 10.4 0 3.689-.7 7.156-2.102 10.4-1.4 3.244-3.3 6.067-5.698 8.467-2.4 2.4-5.223 4.3-8.467 5.701-3.244 1.4-6.711 2.1-10.4 2.099z" fill="#5E8CA5"/></svg>