<svg width="48" height="48" viewBox="0 0 64 64" fill="none" xmlns="http://www.w3.org/2000/svg"><path d="M32 5.333a26.667 26.667 0 100 53.334 26.667 26.667 0 000-53.334zm-13.333 20c0-2.133 1.866-4 4-4 2.133 0 4 1.867 4 4 0 2.134-1.867 4-4 4-2.134 0-4-1.866-4-4zM32 45.947c-4.667 0-8.773-1.947-11.173-4.827l3.786-3.787c1.2 1.92 4.054 3.28 7.387 3.28 3.333 0 6.187-1.36 7.387-3.28l3.786 3.787C40.773 44 36.667 45.947 32 45.947zm9.333-16.614c-2.133 0-4-1.866-4-4 0-2.133 1.867-4 4-4 2.134 0 4 1.867 4 4 0 2.134-1.866 4-4 4z" fill="#5E8CA5"/></svg>