<svg width="57" height="43" viewBox="0 0 57 43" fill="none" xmlns="http://www.w3.org/2000/svg">
<path d="M16.8333 25.5C16.8333 23.568 15.2653 22 13.3333 22C11.4013 22 9.83333 23.568 9.83333 25.5C9.83333 27.432 11.4013 29 13.3333 29C15.2653 29 16.8333 27.432 16.8333 25.5ZM37.8333 27.8333C37.8333 27.1893 37.3107 26.6667 36.6667 26.6667H20.3333C19.6893 26.6667 19.1667 27.1893 19.1667 27.8333C19.1667 28.4773 19.6893 29 20.3333 29H36.6667C37.3107 29 37.8333 28.4773 37.8333 27.8333ZM47.1667 25.5C47.1667 23.568 45.5987 22 43.6667 22C41.7347 22 40.1667 23.568 40.1667 25.5C40.1667 27.432 41.7347 29 43.6667 29C45.5987 29 47.1667 27.432 47.1667 25.5ZM6.80467 10.3333H1.66667C1.02267 10.3333 0.5 10.856 0.5 11.5V12.6923C0.5 14.5427 2.66067 15 4.27067 15L6.80467 10.3333ZM51.88 17.7253C50.1043 14.4283 47.9157 10.3287 45.6173 6.49732C43.7833 3.43599 42.4207 1.97532 39.1983 1.39432C35.9433 0.810989 32.9427 0.584656 28.5 0.584656C24.0573 0.584656 21.0567 0.810989 17.8017 1.39432C14.5793 1.97299 13.2167 3.43599 11.3827 6.49732C9.09367 10.317 6.919 14.3887 5.12 17.7253C3.517 20.6957 2.83333 23.3533 2.83333 26.606C2.83333 29.6813 3.81333 32.241 5.16667 35.5123V40.6667C5.16667 41.9547 6.212 43 7.5 43H11C12.288 43 13.3333 41.9547 13.3333 40.6667V38.3333H43.6667V40.6667C43.6667 41.9547 44.712 43 46 43H49.5C50.788 43 51.8333 41.9547 51.8333 40.6667V35.5123C53.1867 32.2387 54.1667 29.6813 54.1667 26.606C54.1667 23.3533 53.483 20.6957 51.88 17.7253ZM15.3843 8.89599C16.9477 6.28966 17.3723 6.21499 18.6277 5.98866C21.5863 5.45899 24.356 5.25132 28.5 5.25132C32.644 5.25132 35.4137 5.45666 38.3723 5.98866C39.6277 6.21499 40.0523 6.28966 41.6157 8.89599C42.5677 10.485 43.5057 12.1347 44.404 13.7517C41.0067 14.265 35.024 15 28.5 15C21.388 15 15.627 14.216 12.6217 13.705C13.513 12.1043 14.4393 10.471 15.3843 8.89599ZM42.4393 33.6667H14.5607C10.6617 33.6667 7.5 30.5073 7.5 26.606C7.5 22.777 8.68067 20.957 10.2627 18.024C12.6917 18.5023 19.519 19.6667 28.5 19.6667C36.6223 19.6667 43.809 18.605 46.7793 18.0987C48.3287 20.971 49.5 22.7887 49.5 26.606C49.5 30.5073 46.3383 33.6667 42.4393 33.6667ZM55.3333 10.3333C55.9773 10.3333 56.5 10.856 56.5 11.5V12.6923C56.5 14.5427 54.3393 15 52.7293 15L50.1953 10.3333H55.3333Z" fill="#404040"/>
</svg>
