<svg width="48" height="56" viewBox="0 0 48 56" fill="none" xmlns="http://www.w3.org/2000/svg">
<path d="M14.6667 35.126V44.6647C12.8303 47.1193 10.6977 49.3617 8.25232 51.3333C8.31766 49.4013 7.87666 47.4413 7.40532 45.8523C5.18632 46.564 2.58699 46.5803 0.666656 45.9877C5.66699 42.336 8.83099 38.2037 10.8633 32.704C12.0323 33.6443 13.311 34.4493 14.6667 35.126ZM37.1367 32.704C35.9677 33.6443 34.689 34.4493 33.3333 35.126V44.6647C35.1697 47.1193 37.3023 49.364 39.7477 51.3333C39.6823 49.4013 40.1233 47.4413 40.5947 45.8523C42.8137 46.564 45.4107 46.5803 47.3333 45.99C42.333 42.336 39.169 38.206 37.1367 32.704ZM40.3333 16.3333C40.3333 25.354 33.0183 32.6667 24 32.6667C14.9817 32.6667 7.66666 25.354 7.66666 16.3333C7.66666 7.31267 14.9817 0 24 0C33.0183 0 40.3333 7.31267 40.3333 16.3333ZM35.6667 16.3333C35.6667 9.891 30.4447 4.66667 24 4.66667C17.5553 4.66667 12.3333 9.891 12.3333 16.3333C12.3333 22.7757 17.5553 28 24 28C30.4447 28 35.6667 22.7757 35.6667 16.3333ZM28.326 22.7617L24 20.447L19.674 22.7617L20.535 17.9317L17 14.532L21.8603 13.8623L24 9.44767L26.1397 13.8623L31 14.532L27.4627 17.9317L28.326 22.7617ZM26.3333 37.1723V47.3363L24.133 45.885L21.6667 47.467V37.1723C20.0357 36.9693 18.4723 36.5587 17 35.9637V56L24.098 51.45L31 56V35.9637C29.5277 36.5587 27.9643 36.967 26.3333 37.1723Z" fill="#404040"/>
</svg>
