<?xml version="1.0" encoding="UTF-8" standalone="no"?><!DOCTYPE svg PUBLIC "-//W3C//DTD SVG 1.1//EN" "http://www.w3.org/Graphics/SVG/1.1/DTD/svg11.dtd"><svg width="100%" height="100%" viewBox="0 0 2435 1125" version="1.1" xmlns="http://www.w3.org/2000/svg" xmlns:xlink="http://www.w3.org/1999/xlink" xml:space="preserve" xmlns:serif="http://www.serif.com/" style="fill-rule:evenodd;clip-rule:evenodd;stroke-linecap:round;stroke-linejoin:round;stroke-miterlimit:1.5;"><g><path d="M723.276,1078.64c0,0 -122.959,5.281 -122.959,7.544c0,4.164 55.096,7.544 122.959,7.544c67.864,0 122.96,-3.38 122.96,-7.544c-0,-2.263 -122.96,-7.544 -122.96,-7.544Z" style="fill:none;stroke:#f6f8fb;stroke-width:16.67px;"/><path d="M1967.25,1078.64c0,0 -122.959,5.281 -122.959,7.544c-0,4.164 55.096,7.544 122.959,7.544c67.863,0 122.959,-3.38 122.959,-7.544c0,-2.263 -122.959,-7.544 -122.959,-7.544Z" style="fill:none;stroke:#f6f8fb;stroke-width:16.67px;"/><path d="M1833.98,897.856c17.277,-28.101 16.581,-52.778 -12.386,-72.071c-115.059,-141.549 -248.819,-222.32 -407.919,-220.738c-138.375,8.689 -260.472,80.216 -451.144,174.232l27.536,118.577c196.393,-27.09 423.85,-398.785 843.913,0Z" style="fill:#5e8ca5;"/><path d="M605.628,940.418c-189.254,37.989 -315.718,13.188 -416.896,-36.899c118.453,101.741 216.229,134.543 457.679,122.35l-40.783,-85.451Z" style="fill:#5e8ca5;"/><path d="M2203.52,903.358c96.824,33.661 161.525,11.685 213.289,-32.696c-60.602,90.151 -110.626,119.215 -234.155,108.411l20.866,-75.715Z" style="fill:#f8f8f8;"/><path d="M2213.78,894.259c-39.921,106.534 74.319,88.503 215.753,-46.278c-35.529,79.952 -129.801,155.734 -247.535,144.313l31.782,-98.035Z" style="fill:#5e8ca5;"/><path d="M1503.54,383.434c-383.051,-22.362 -697.493,49.335 -946.757,210.39c-26.138,-321.998 72.8,-531.703 342.289,-588.284c193.708,-26.496 385.945,43.759 604.468,173.977c115.345,72.877 142.146,55.706 353.246,52.772c364.656,16.847 612.58,251.372 574.203,592.005c-69.254,-337.386 -224.707,-468.038 -574.203,-489.185c-118.127,-7.147 -187.636,34.968 -257.824,12.251c-217.387,-70.358 -241.27,-141.951 -480.823,-203.334l-43.243,-7.897l-0,199.903c196.923,-6.678 327.042,12.785 428.644,43.407l-0,3.995Zm-473.378,-254.844l-0,211.2c-131.242,12.086 -253.764,39.432 -367.742,81.728c48.235,-211.225 164.14,-319.067 367.742,-292.928Z" style="fill:#5e8ca5;"/><path d="M406.13,459.822c19.103,-38.581 40.877,-61.671 59.434,-93.65c26.539,-45.735 43.725,-109.256 -1.893,-149.021c-8.52,-7.426 -18.188,-13.572 -28.178,-18.857c-110.365,-31.442 -191.305,60.715 -248.08,254.379c-77.841,265.52 149.23,480.998 456.389,552.999c-144.7,-73.254 -302.582,-187.06 -289.756,-369.295c4.335,-61.585 25.367,-121.562 52.084,-176.555" style="fill:#e0d9d6;"/><path d="M13.583,635.71c3.047,-21.779 29.3,-36.133 58.589,-32.035c29.288,4.098 50.593,25.107 47.545,46.886c-3.047,21.779 -29.3,36.133 -58.589,32.035c-29.288,-4.099 -50.593,-25.108 -47.545,-46.886Z" style="fill:#e0d9d6;"/><path d="M0.71,501.419c5.118,-23.839 36.535,-37.341 70.113,-30.132c33.578,7.209 56.684,32.417 51.565,56.256c-5.118,23.84 -36.534,37.341 -70.112,30.132c-33.579,-7.209 -56.684,-32.416 -51.566,-56.256Z" style="fill:#e0d9d6;"/><path d="M10.916,357.287c8.111,-25.351 43.701,-36.653 79.427,-25.222c35.725,11.43 58.145,41.292 50.034,66.643c-8.111,25.351 -43.701,36.653 -79.426,25.222c-35.726,-11.43 -58.146,-41.292 -50.035,-66.643Z" style="fill:#e0d9d6;"/><path d="M69.039,201.363c12.227,-24.314 51.679,-29.207 88.046,-10.92c36.367,18.288 55.966,52.875 43.739,77.189c-12.226,24.315 -51.678,29.208 -88.045,10.92c-36.367,-18.287 -55.966,-52.874 -43.74,-77.189Z" style="fill:#e0d9d6;"/><path d="M169.046,18.925c31.793,-31.717 93.029,-21.957 136.663,21.782c43.633,43.738 53.246,104.998 21.453,136.715c-31.793,31.717 -93.03,21.957 -136.663,-21.782c-43.634,-43.738 -53.246,-104.998 -21.453,-136.715Z" style="fill:#e0d9d6;"/><circle cx="796.506" cy="894.921" r="183.722" style="fill:none;stroke:#404040;stroke-width:91.67px;"/><circle cx="796.506" cy="894.921" r="183.722" style="fill:none;stroke:#404040;stroke-width:91.67px;"/><circle cx="2028.01" cy="894.921" r="183.722" style="fill:none;stroke:#404040;stroke-width:91.67px;"/></g></svg>