<svg width="42" height="56" viewBox="0 0 42 56" fill="none" xmlns="http://www.w3.org/2000/svg">
<path fill-rule="evenodd" clip-rule="evenodd" d="M5.25 40.418L0 37.569L5.21267 30.4127L0 25.8393L10.997 19.8613C11.473 20.4003 11.9537 21.0373 12.4063 21.7443L4.04367 26.2897L6.79933 28.7093L13.9347 24.7753C14.2123 25.508 14.4387 26.271 14.5927 27.055L6.98367 31.2573L21.0257 38.5117L35 31.2667L27.6453 27.195C27.7877 26.3853 27.9813 25.6387 28.224 24.9363L35.0677 28.7047L37.947 26.1497L29.7803 21.8213C30.2073 21.1797 30.6857 20.5613 31.213 19.9477L42 25.662L36.7243 30.3473L36.75 30.3613L42 37.5503L36.75 40.4063V47.6093L21 56L5.25 47.6093V40.418ZM22.1573 40.1987V52.745L34.419 46.214V41.6733L26.25 46.1183L22.1573 40.1987ZM7.581 41.6827V46.214L19.8263 52.738V40.201L15.75 46.1183L7.581 41.6827ZM3.44633 36.792L15.0197 43.0733L17.584 39.354L5.957 33.3457L3.44633 36.792ZM24.4183 39.375L26.9757 43.0733L38.5513 36.778L36.0477 33.3457L24.4183 39.375ZM21.637 32.5733H20.4213C20.104 32.5733 19.796 32.466 19.586 32.277L17.9713 31.2153H24.087L22.4723 32.277C22.2647 32.466 21.9567 32.5733 21.637 32.5733ZM24.1453 29.8573H17.9503C17.5747 29.8573 17.2713 29.5563 17.2713 29.1807C17.2713 28.805 17.5747 28.5017 17.9503 28.5017H24.1453C24.521 28.5017 24.8243 28.805 24.8243 29.1807C24.8243 29.5563 24.521 29.8573 24.1453 29.8573ZM24.815 27.1437H17.2433C17.2433 21.784 12.8753 19.4647 12.8753 14.6207C12.8753 9.56667 16.9493 6.78533 21.0257 6.78533C25.1043 6.78533 29.1853 9.57133 29.1853 14.6207C29.1853 19.4647 24.8173 21.7093 24.815 27.1437ZM22.7127 24.8173C23.1513 22.5913 24.1687 20.8763 25.088 19.32C26.0773 17.654 26.8543 16.3357 26.8543 14.6207C26.8543 11.004 23.9213 9.11167 21.0257 9.11167C18.1347 9.11167 15.204 11.004 15.204 14.6207C15.204 16.345 15.9903 17.682 16.9843 19.369C17.899 20.9183 18.9023 22.6263 19.3457 24.8173H22.7127ZM10.213 14.735H6.07833V12.4087H10.3203C10.2293 12.9197 10.1827 13.447 10.1827 13.9813L10.213 14.735ZM35.98 14.735H31.871L31.9037 13.9813C31.9037 13.447 31.857 12.9197 31.7637 12.4087H35.98V14.735ZM12.6863 7.70933C12.1567 8.28567 11.697 8.918 11.3237 9.597L7.966 7.21467L9.31467 5.31767L12.6863 7.70933ZM29.3907 7.69767L32.7437 5.31767L34.0923 7.21467L30.7557 9.583C30.38 8.90633 29.9203 8.274 29.3907 7.69767ZM17.024 4.851C16.282 5.11933 15.5797 5.46 14.9263 5.86133L13.125 2.18633L15.218 1.16433L17.024 4.851ZM25.039 4.84167L26.8427 1.16433L28.9333 2.18633L27.139 5.84967C26.4857 5.44833 25.7833 5.10767 25.039 4.84167ZM22.1947 4.20933C21.8167 4.172 21.4317 4.15333 21.042 4.15333C20.6453 4.15333 20.251 4.17433 19.8637 4.21167V0H22.1947V4.20933Z" fill="#404040"/>
</svg>
