<svg width="43" height="42" viewBox="0 0 43 42" fill="none" xmlns="http://www.w3.org/2000/svg">
<path fill-rule="evenodd" clip-rule="evenodd" d="M42.5 2.33333C42.5 1.218 41.6157 0 40.1667 0H2.83333C1.38667 0 0.5 1.211 0.5 2.33333V39.6667C0.5 41.1157 1.71333 42 2.83333 42H40.1667C41.282 42 42.5 41.1157 42.5 39.6667V2.33333ZM4 3.5H39V38.5H4V3.5ZM35.5 28.5833C35.5 27.6173 34.716 26.8333 33.75 26.8333H23.25C22.284 26.8333 21.5 27.6173 21.5 28.5833C21.5 29.5493 22.284 30.3333 23.25 30.3333H33.75C34.716 30.3333 35.5 29.5493 35.5 28.5833ZM8.032 27.3303L10.9487 29.9297C11.252 30.2003 11.6323 30.3333 12.0103 30.3333C12.442 30.3333 12.8737 30.1583 13.1863 29.8153L18.1237 24.4183C18.4037 24.1127 18.5413 23.7277 18.5413 23.3473C18.5413 22.4723 17.8343 21.756 16.9453 21.756C16.5137 21.756 16.0867 21.9287 15.7693 22.2717L11.896 26.5067L10.1553 24.955C9.84967 24.6843 9.47167 24.5513 9.09367 24.5513C8.20933 24.5513 7.5 25.2677 7.5 26.1427C7.5 26.5813 7.67967 27.0153 8.032 27.3303ZM35.5 21.0047C35.5 20.0387 34.716 19.2547 33.75 19.2547H23.25C22.284 19.2547 21.5 20.0387 21.5 21.0047C21.5 21.9707 22.284 22.7547 23.25 22.7547H33.75C34.716 22.7547 35.5 21.9707 35.5 21.0047ZM8.032 17.241L10.9487 19.8403C11.252 20.111 11.6323 20.244 12.0103 20.244C12.442 20.244 12.8737 20.0713 13.1863 19.7283L18.1237 14.3313C18.4037 14.0257 18.5413 13.6407 18.5413 13.258C18.5413 12.3853 17.8343 11.6667 16.9453 11.6667C16.5137 11.6667 16.0867 11.8393 15.7693 12.1823L11.896 16.4173L10.1553 14.868C9.84967 14.5973 9.47167 14.4643 9.09367 14.4643C8.20933 14.4643 7.5 15.1783 7.5 16.0557C7.5 16.492 7.67967 16.9283 8.032 17.2433V17.241ZM35.5 13.4167C35.5 12.4507 34.716 11.6667 33.75 11.6667H23.25C22.284 11.6667 21.5 12.4507 21.5 13.4167C21.5 14.3827 22.284 15.1667 23.25 15.1667H33.75C34.716 15.1667 35.5 14.3827 35.5 13.4167Z" fill="#404040"/>
</svg>
