<svg width="48" height="48" viewBox="0 0 64 64" fill="none" xmlns="http://www.w3.org/2000/svg">
<path d="M16 50.6666V53.3333C16 54.0889 15.744 54.7226 15.232 55.2346C14.72 55.7466 14.0871 56.0018 13.3333 56H10.6667C9.91112 56 9.27734 55.744 8.76534 55.232C8.25334 54.72 7.99823 54.0871 8.00001 53.3333V32L13.6 16C13.8667 15.2 14.344 14.5555 15.032 14.0666C15.72 13.5778 16.4871 13.3333 17.3333 13.3333H46.6667C47.5111 13.3333 48.2782 13.5778 48.968 14.0666C49.6578 14.5555 50.1351 15.2 50.4 16L56 32V53.3333C56 54.0889 55.7449 54.7226 55.2347 55.2346C54.7245 55.7466 54.0907 56.0018 53.3333 56H50.6667C49.9111 56 49.2773 55.744 48.7653 55.232C48.2533 54.72 47.9982 54.0871 48 53.3333V50.6666H16ZM15.4667 26.6666H48.5333L45.7333 18.6666H18.2667L15.4667 26.6666ZM20 42.6666C21.1111 42.6666 22.056 42.2773 22.8347 41.4986C23.6133 40.72 24.0018 39.776 24 38.6666C24 37.5555 23.6107 36.6106 22.832 35.832C22.0533 35.0533 21.1093 34.6649 20 34.6666C18.8889 34.6666 17.944 35.056 17.1653 35.8346C16.3867 36.6133 15.9982 37.5573 16 38.6666C16 39.7778 16.3893 40.7226 17.168 41.5013C17.9467 42.28 18.8907 42.6684 20 42.6666ZM44 42.6666C45.1111 42.6666 46.056 42.2773 46.8347 41.4986C47.6133 40.72 48.0018 39.776 48 38.6666C48 37.5555 47.6107 36.6106 46.832 35.832C46.0533 35.0533 45.1093 34.6649 44 34.6666C42.8889 34.6666 41.944 35.056 41.1653 35.8346C40.3867 36.6133 39.9982 37.5573 40 38.6666C40 39.7778 40.3893 40.7226 41.168 41.5013C41.9467 42.28 42.8907 42.6684 44 42.6666Z" fill="#5E8CA5"/>
</svg>
