<svg width="48" height="48" viewBox="0 0 64 64" fill="none" xmlns="http://www.w3.org/2000/svg">
<path d="M31.9999 5.33331C28.498 5.33331 25.0304 6.02307 21.795 7.36319C18.5597 8.70332 15.62 10.6676 13.1437 13.1438C8.14277 18.1448 5.33325 24.9275 5.33325 32C5.33325 39.0724 8.14277 45.8552 13.1437 50.8562C15.62 53.3324 18.5597 55.2966 21.795 56.6368C25.0304 57.9769 28.498 58.6666 31.9999 58.6666C39.0724 58.6666 45.8551 55.8571 50.8561 50.8562C55.8571 45.8552 58.6666 39.0724 58.6666 32C58.6666 28.4981 57.9768 25.0304 56.6367 21.7951C55.2966 18.5597 53.3323 15.62 50.8561 13.1438C48.3799 10.6676 45.4402 8.70332 42.2048 7.36319C38.9695 6.02307 35.5018 5.33331 31.9999 5.33331ZM18.6666 25.3333C18.6666 23.2 20.5333 21.3333 22.6666 21.3333C24.7999 21.3333 26.6666 23.2 26.6666 25.3333C26.6666 27.4666 24.7999 29.3333 22.6666 29.3333C20.5333 29.3333 18.6666 27.4666 18.6666 25.3333ZM31.9999 45.9466C27.3333 45.9466 23.2266 44 20.8266 41.12L24.6133 37.3333C25.8133 39.2533 28.6666 40.6133 31.9999 40.6133C35.3333 40.6133 38.1866 39.2533 39.3866 37.3333L43.1733 41.12C40.7733 44 36.6666 45.9466 31.9999 45.9466ZM41.3333 29.3333C39.1999 29.3333 37.3333 27.4666 37.3333 25.3333C37.3333 23.2 39.1999 21.3333 41.3333 21.3333C43.4666 21.3333 45.3333 23.2 45.3333 25.3333C45.3333 27.4666 43.4666 29.3333 41.3333 29.3333Z" fill="#5E8CA5"/>
</svg>
